<?xml version="1.0" standalone="no"?>
<!DOCTYPE svg PUBLIC "-//W3C//DTD SVG 20010904//EN"
 "http://www.w3.org/TR/2001/REC-SVG-20010904/DTD/svg10.dtd">
<svg version="1.0" xmlns="http://www.w3.org/2000/svg"
 width="1024.000000pt" height="1024.000000pt" viewBox="0 0 1024.000000 1024.000000"
 preserveAspectRatio="xMidYMid meet">

<g transform="translate(0.000000,1024.000000) scale(0.100000,-0.100000)"
fill="#1E3A8A" stroke="none">
<path d="M5060 8836 c-30 -12 -1939 -958 -2520 -1248 -150 -76 -189 -100 -208
-128 -28 -42 -25 -90 10 -128 27 -29 2632 -1334 2709 -1356 29 -9 67 -16 85
-16 30 0 312 139 2145 1058 3 1 9 -129 12 -290 l7 -292 -45 -46 c-98 -99 -101
-232 -8 -331 l46 -49 -13 -498 c-7 -273 -11 -508 -9 -522 l4 -25 170 0 170 0
-1 40 c-1 22 -6 258 -13 524 l-12 484 45 46 c95 97 94 243 -3 335 l-31 30 0
373 0 373 150 75 c163 81 185 101 185 168 0 34 -6 45 -35 69 -19 16 -525 272
-1125 569 -599 298 -1203 597 -1342 666 -267 133 -306 145 -373 119z"/>
<path d="M3310 6187 l0 -323 143 -48 c504 -171 909 -404 1301 -746 67 -59 175
-163 242 -233 66 -70 123 -127 127 -127 4 0 78 73 164 161 310 318 596 528
973 718 172 87 455 205 598 251 l72 23 0 323 c0 178 -2 324 -5 324 -9 0 -805
-387 -1440 -701 -293 -144 -313 -153 -370 -153 -68 -1 -5 -30 -1248 583 -302
149 -550 271 -553 271 -2 0 -4 -145 -4 -323z"/>
<path d="M2296 5730 c-38 -12 -75 -47 -92 -87 -12 -27 -14 -270 -14 -1441 l0
-1408 23 -44 c40 -79 49 -82 286 -96 224 -14 389 -38 579 -84 663 -163 1264
-507 1819 -1043 62 -59 128 -114 147 -122 41 -17 113 -20 151 -5 15 6 93 71
173 146 521 482 965 760 1511 943 314 106 594 154 1002 174 73 3 111 25 141
80 16 30 17 133 18 1457 0 1337 -1 1427 -18 1459 -32 64 -61 76 -170 74 -53 0
-108 -5 -122 -11 l-25 -10 0 -1356 0 -1356 -40 0 c-61 0 -277 -28 -395 -51
-696 -135 -1325 -445 -1881 -926 -53 -46 -98 -83 -100 -83 -2 0 -3 441 -1 980
l2 981 92 117 c492 626 945 954 1678 1215 l95 34 3 173 2 172 -36 -7 c-116
-21 -475 -158 -679 -258 -484 -238 -884 -562 -1228 -994 -49 -62 -92 -113 -96
-113 -3 0 -11 8 -17 18 -77 122 -413 476 -599 631 -487 404 -1045 663 -1715
795 -223 44 -438 64 -494 46z m395 -380 c517 -90 1052 -316 1444 -610 274
-206 523 -457 743 -751 l72 -96 0 -971 c0 -535 -3 -972 -6 -972 -3 0 -49 38
-102 83 -246 212 -490 379 -784 536 -394 211 -939 375 -1395 422 l-123 12 0
1183 c0 1150 1 1184 19 1184 10 0 70 -9 132 -20z"/>
</g>
</svg>
